<svg width="170" height="115" viewBox="0 0 170 115" fill="none" xmlns="http://www.w3.org/2000/svg">
<g clip-path="url(#clip0_313_3085)">
<path d="M101.483 102.133H3.14239C1.63827 102.133 0.418945 103.345 0.418945 104.839V111.997C0.418945 113.491 1.63827 114.703 3.14239 114.703H101.483C102.987 114.703 104.206 113.491 104.206 111.997V104.839C104.206 103.345 102.987 102.133 101.483 102.133Z" fill="#2F9E41"/>
<path d="M17.0919 27.8207C17.0919 23.1832 13.9061 19.9527 9.34779 19.9527H0.418945V44.2386H4.78223V35.7963H9.34779C13.9061 35.7963 17.0919 32.5156 17.0919 27.8207ZM4.78223 32.1136V23.5923H8.58205C11.0743 23.5923 12.6275 25.2076 12.6275 27.8207C12.6275 30.4337 11.0527 32.1136 8.51703 32.1136H4.78223Z" fill="#1D1D1B"/>
<path d="M27.9642 26.4252C22.5028 26.4252 18.3779 30.3448 18.3779 35.5351C18.3779 40.7253 22.4956 44.645 27.9642 44.645C33.4327 44.645 37.5865 40.7253 37.5865 35.5351C37.5865 30.3448 33.4544 26.4252 27.9642 26.4252ZM27.9642 41.1058C24.9301 41.1058 22.6401 38.7153 22.6401 35.5351C22.6401 32.3549 24.9301 29.9643 27.9642 29.9643C30.9983 29.9643 33.3244 32.3549 33.3244 35.5351C33.3244 38.7153 31.0199 41.1058 27.9642 41.1058Z" fill="#1D1D1B"/>
<path d="M51.2326 30.7325C51.6877 30.7325 52.0489 30.7683 52.2151 30.7899V26.6621C52.0778 26.6405 51.7816 26.6046 51.5071 26.6046C49.0437 26.6046 46.8187 28.3922 45.9735 31.0555L45.9518 31.1201H45.7134L45.7279 31.0196C45.7279 31.0196 45.7929 30.5673 45.7929 29.9284V28.8947C45.7929 27.4948 45.0705 26.8487 43.5246 26.8487H41.7402V44.243H45.9302V37.3728C45.9302 36.3678 46.0602 35.3987 46.313 34.487C47.1582 31.716 49.3977 30.7325 51.2181 30.7325H51.2326Z" fill="#1D1D1B"/>
<path d="M64.8137 44.4081C65.4277 44.4081 65.8973 44.3435 66.0779 44.3219V40.6823C65.9478 40.7038 65.695 40.7325 65.3699 40.7325C64.2863 40.7325 61.7796 40.4023 61.7796 37.3369V30.151H65.8034V26.8487H61.7796V22.0605H57.6619V26.8487H55.2708V30.151H57.5608V37.8897C57.5608 43.5681 62.1119 44.4152 64.8209 44.4152L64.8137 44.4081Z" fill="#1D1D1B"/>
<path d="M80.6054 42.398C80.6054 43.5681 81.3928 44.2357 82.7726 44.2357H84.4847V33.3312C84.4847 28.6865 82.0213 26.4252 76.9428 26.4252C75.4403 26.4252 70.5496 26.6764 70.5496 29.9571V31.7303H74.4578V30.8904C74.4578 29.6628 76.6539 29.6269 76.9067 29.6269C79.2834 29.6269 80.2587 30.6535 80.2587 33.1589V33.3886H79.6157C76.4805 33.3886 69.1987 33.9629 69.1987 39.2608C69.1987 42.9651 72.2834 44.6521 75.1441 44.6521C79.0233 44.6521 80.3887 41.637 80.4031 41.6011L80.4248 41.5437H80.656L80.6415 41.6442C80.6415 41.6442 80.6054 41.9529 80.6054 42.3908V42.398ZM80.3309 36.7124C80.3309 38.9378 78.5682 41.4217 76.2204 41.4217C74.3133 41.4217 73.4609 40.2372 73.4609 39.0598C73.4609 37.1718 75.4836 36.217 79.4785 36.217H80.3309V36.7196V36.7124Z" fill="#1D1D1B"/>
<path d="M91.7881 44.2357H95.8624V40.7253H94.5982C94.0637 40.7253 93.7458 40.4095 93.7458 39.8782V22.1969C93.7458 20.6175 93.0668 19.9427 91.4775 19.9427H89.5198V41.9744C89.5198 43.5753 90.1772 44.2286 91.7881 44.2286V44.2357Z" fill="#1D1D1B"/>
<path d="M124.13 44.2358H125.979V22.2041C125.979 20.6248 125.3 19.95 123.711 19.95H121.753V27.4446C121.753 28.0189 121.789 28.464 121.789 28.4712V28.5645H121.58L121.551 28.5214C121.551 28.5214 120.28 26.4324 116.53 26.4324C111.77 26.4324 108.577 30.0936 108.577 35.5423C108.577 40.991 111.705 44.6522 116.357 44.6522C120.308 44.6522 121.775 41.8668 121.789 41.8381L121.811 41.7879H122.028V42.5345C122.028 43.6615 122.736 44.2358 124.123 44.2358H124.13ZM117.332 41.1418C114.666 41.1418 112.875 38.8876 112.875 35.5351C112.875 32.1826 114.739 30.0003 117.404 30.0003C120.467 30.0003 121.862 32.8503 121.862 35.4992C121.862 39.6629 119.42 41.1346 117.332 41.1346V41.1418Z" fill="#1D1D1B"/>
<path d="M138.318 26.4252C133.08 26.4252 129.425 30.1725 129.425 35.5351C129.425 40.8976 133.384 44.645 138.838 44.645C142.826 44.645 145.441 42.4195 145.831 42.0678L144.083 39.1891C143.664 39.548 141.677 41.1058 139.149 41.1058C136.194 41.1058 134.077 39.225 133.752 36.3032L133.738 36.2027H145.961C145.983 35.9371 146.055 35.0972 146.055 34.6736C146.055 29.6628 143.013 26.4252 138.311 26.4252H138.318ZM133.868 33.3527L133.889 33.245C134.388 30.9765 136.042 29.6269 138.311 29.6269C140.225 29.6269 141.663 31.156 141.728 33.2666V33.3599H133.861L133.868 33.3527Z" fill="#1D1D1B"/>
<path d="M17.0919 69.1677C17.0919 64.5302 13.9061 61.2998 9.34779 61.2998H0.418945V85.5856H4.78223V77.1434H9.34779C13.9061 77.1434 17.0919 73.8627 17.0919 69.1677ZM4.78223 73.4607V64.9394H8.58205C11.0743 64.9394 12.6275 66.5547 12.6275 69.1677C12.6275 71.7808 11.0527 73.4607 8.51703 73.4607H4.78223Z" fill="#1D1D1B"/>
<path d="M27.2707 67.775C22.0333 67.775 18.3779 71.5224 18.3779 76.8849C18.3779 82.2475 22.3367 85.9948 27.7908 85.9948C31.7785 85.9948 34.3936 83.7694 34.7837 83.4176L33.0355 80.5389C32.6165 80.8979 30.6299 82.4557 28.1015 82.4557C25.1468 82.4557 23.0302 80.5748 22.7051 77.653L22.6907 77.5525H34.9137C34.9354 77.2869 35.0076 76.447 35.0076 76.0235C35.0076 71.0127 31.9663 67.775 27.2635 67.775H27.2707ZM22.8207 74.7026L22.8424 74.5949C23.3408 72.3264 24.9951 70.9768 27.2635 70.9768C29.1778 70.9768 30.6154 72.5059 30.6804 74.6164V74.7097H22.8135L22.8207 74.7026Z" fill="#1D1D1B"/>
<path d="M48.9425 72.0823C49.3977 72.0823 49.7589 72.1182 49.925 72.1398V68.012C49.7878 67.9904 49.4916 67.9545 49.2171 67.9545C46.7537 67.9545 44.5287 69.742 43.6835 72.4054L43.6618 72.47H43.4234L43.4379 72.3695C43.4379 72.3695 43.5029 71.9172 43.5029 71.2783V70.2446C43.5029 68.8447 42.7805 68.1986 41.2345 68.1986H39.4502V85.5928H43.6401V78.7227C43.6401 77.7177 43.7702 76.7486 44.023 75.8368C44.8682 73.0658 47.1077 72.0823 48.9281 72.0823H48.9425Z" fill="#1D1D1B"/>
<path d="M56.1233 85.5857H58.081V70.4456C58.081 68.8662 57.4164 68.1914 55.8488 68.1914H53.8911V83.3315C53.8911 84.9324 54.5413 85.5857 56.1233 85.5857Z" fill="#1D1D1B"/>
<path d="M57.7343 61.2998H54.1006V65.1548H57.7343V61.2998Z" fill="#1D1D1B"/>
<path d="M71.2142 86.002C76.6972 86.002 80.8366 82.0824 80.8366 76.8921C80.8366 71.7019 76.7044 67.7822 71.2142 67.7822C65.7239 67.7822 61.6279 71.7019 61.6279 76.8921C61.6279 82.0824 65.7456 86.002 71.2142 86.002ZM71.2142 71.3214C74.2699 71.3214 76.5744 73.7119 76.5744 76.8921C76.5744 80.0723 74.2699 82.4629 71.2142 82.4629C68.1584 82.4629 65.8901 80.0723 65.8901 76.8921C65.8901 73.7119 68.1801 71.3214 71.2142 71.3214Z" fill="#1D1D1B"/>
<path d="M72.7311 65.8439L76.2275 61.3357H72.2326L69.697 65.8439H72.7311Z" fill="#1D1D1B"/>
<path d="M99.5035 85.5857H101.353V63.5539C101.353 61.9746 100.674 61.2998 99.0845 61.2998H97.1268V68.7944C97.1268 69.3687 97.1629 69.8138 97.1629 69.821V69.9143H96.9534L96.9245 69.8713C96.9245 69.8713 95.6531 67.7822 91.9038 67.7822C87.1432 67.7822 83.9502 71.4434 83.9502 76.8921C83.9502 82.3408 87.0782 86.002 91.7305 86.002C95.682 86.002 97.1485 83.2167 97.1629 83.1879L97.1846 83.1377H97.4013V83.8843C97.4013 85.0114 98.1093 85.5857 99.4963 85.5857H99.5035ZM92.7057 82.4916C90.04 82.4916 88.2485 80.2375 88.2485 76.885C88.2485 73.5325 90.1123 71.3501 92.7779 71.3501C95.8409 71.3501 97.2352 74.2001 97.2352 76.8491C97.2352 81.0128 94.7934 82.4844 92.7057 82.4844V82.4916Z" fill="#1D1D1B"/>
<path d="M108.938 85.5857H110.896V70.4456C110.896 68.8662 110.231 68.1914 108.664 68.1914H106.706V83.3315C106.706 84.9324 107.356 85.5857 108.938 85.5857Z" fill="#1D1D1B"/>
<path d="M110.549 61.2998H106.915V65.1548H110.549V61.2998Z" fill="#1D1D1B"/>
<path d="M124.751 67.775C119.109 67.775 115.165 71.5224 115.165 76.8849C115.165 82.2475 119.152 85.9948 124.643 85.9948C129.042 85.9948 131.636 83.2956 131.989 82.9079L130.249 80.0292C129.815 80.4528 127.727 82.3552 125.033 82.3552C122.338 82.3552 119.427 80.6322 119.427 76.8562C119.427 73.6257 121.666 71.2855 124.751 71.2855C125.734 71.2855 127.279 71.6588 127.366 72.6638H131.072V71.6516C131.072 68.8088 127.287 67.775 124.744 67.775H124.751Z" fill="#1D1D1B"/>
<path d="M143.404 67.775C137.943 67.775 133.818 71.6946 133.818 76.8849C133.818 82.0752 137.935 85.9948 143.404 85.9948C148.872 85.9948 153.026 82.0752 153.026 76.8849C153.026 71.6946 148.894 67.775 143.404 67.775ZM143.404 82.4557C140.37 82.4557 138.08 80.0651 138.08 76.8849C138.08 73.7047 140.37 71.3142 143.404 71.3142C146.438 71.3142 148.764 73.7047 148.764 76.8849C148.764 80.0651 146.46 82.4557 143.404 82.4557Z" fill="#1D1D1B"/>
<path d="M162.439 86.002C166.391 86.002 169.143 83.8268 169.143 80.7184C169.143 77.3085 165.849 76.0881 163.205 75.1118C161.348 74.4298 159.745 73.834 159.745 72.6495C159.745 71.6013 160.763 70.9768 162.468 70.9768C163.393 70.9768 164.686 71.3644 164.773 72.2187H168.478V71.3429C168.478 68.5288 164.635 67.7822 162.36 67.7822C159.087 67.7822 155.584 69.1103 155.584 72.8289C155.584 76.1958 158.921 77.5239 161.601 78.5935C163.451 79.3329 164.91 79.9144 164.91 80.9625C164.91 82.0967 163.978 82.7716 162.425 82.7716C159.708 82.7716 157.585 80.6825 157.158 80.2374L155.186 82.951C155.54 83.353 158.011 86.002 162.425 86.002H162.439Z" fill="#1D1D1B"/>
<path d="M114.11 102.663H112.911V114.077H114.11V102.663Z" fill="#514C4C"/>
<path d="M118.611 102.657H117.729V114.071H118.921V108.802L123.689 108.788V107.711L118.921 107.725V103.719H123.993V102.657H118.921H118.611Z" fill="#514C4C"/>
<path d="M132.286 109.34C132.871 109.075 133.326 108.68 133.637 108.17C133.947 107.66 134.106 107.029 134.106 106.289V106.074C134.106 105.335 133.954 104.703 133.644 104.193C133.333 103.676 132.885 103.289 132.293 103.023C131.701 102.757 130.978 102.621 130.126 102.621H126.535V114.085H127.735V109.757H130.126C130.184 109.757 130.241 109.757 130.299 109.757L133.665 114.093H135.132L131.585 109.592C131.831 109.527 132.069 109.455 132.286 109.362V109.34ZM127.735 108.673V103.655H130.328C130.891 103.655 131.368 103.77 131.744 103.992C132.12 104.215 132.409 104.516 132.596 104.889C132.784 105.263 132.878 105.693 132.878 106.174C132.878 106.655 132.784 107.079 132.596 107.459C132.409 107.833 132.127 108.134 131.744 108.35C131.368 108.565 130.891 108.68 130.328 108.68H127.735V108.673Z" fill="#514C4C"/>
<path d="M145.831 102.657V112.994H145.643L139.351 102.657H137.35V114.071H138.484V103.734H138.672L144.964 114.071H146.979V102.657H145.831Z" fill="#514C4C"/>
<path d="M31.7422 3.5894H77.9757C80.3019 3.5894 80.3019 0 77.9757 0H31.7422C29.416 0 29.416 3.5894 31.7422 3.5894Z" fill="black"/>
<path d="M1.74067 3.5894H15.3868C17.713 3.5894 17.713 0 15.3868 0H1.74067C-0.578238 0 -0.585462 3.5894 1.74067 3.5894Z" fill="black"/>
<path d="M99.8286 3.5894H146.062C148.388 3.5894 148.388 0 146.062 0H99.8286C97.5025 0 97.5025 3.5894 99.8286 3.5894Z" fill="black"/>
<path d="M69.8344 3.5894H83.4805C85.8067 3.5894 85.8067 0 83.4805 0H69.8344C67.5083 0 67.5083 3.5894 69.8344 3.5894Z" fill="black"/>
</g>
<defs>
<clipPath id="clip0_313_3085">
<rect width="169.15" height="114.703" fill="white"/>
</clipPath>
</defs>
</svg>
